<mxfile host="app.diagrams.net" modified="2024-06-19T03:35:19.355Z" agent="Mozilla/5.0 (Windows NT 10.0; Win64; x64) AppleWebKit/537.36 (KHTML, like Gecko) Chrome/126.0.0.0 Safari/537.36" etag="T8lTynQELo5nB2gg1pYS" version="24.5.5" type="github">
  <diagram name="第 1 页" id="WSwJrzuGnR91iAjq5RxA">
    <mxGraphModel dx="1313" dy="653" grid="1" gridSize="10" guides="1" tooltips="1" connect="1" arrows="1" fold="1" page="1" pageScale="1" pageWidth="1169" pageHeight="827" math="0" shadow="0">
      <root>
        <mxCell id="0" />
        <mxCell id="1" parent="0" />
        <object label="Actor" id="OHU4Y9Uqify4bpv7kfVv-1">
          <mxCell style="shape=umlActor;verticalLabelPosition=bottom;verticalAlign=top;html=1;outlineConnect=0;" vertex="1" parent="1">
            <mxGeometry x="80" y="360" width="40" height="80" as="geometry" />
          </mxCell>
        </object>
        <object label="注册" 注册="" id="OHU4Y9Uqify4bpv7kfVv-6">
          <mxCell style="ellipse;whiteSpace=wrap;html=1;strokeOpacity=100;fillOpacity=100;" vertex="1" parent="1">
            <mxGeometry x="350" y="200" width="140" height="70" as="geometry" />
          </mxCell>
        </object>
      </root>
    </mxGraphModel>
  </diagram>
</mxfile>
